<svg xmlns="http://www.w3.org/2000/svg" viewBox="0 0 32 32" role="img" aria-label="ha.ggis — The Wee Chieftain haggis icon">
  <!--
    ha.ggis favicon - close-cropped Wee Chieftain mark. This is not the
    full in-game mascot: at 32px the food cue wins through the oval
    casing, cream eyes, pale oat cutaway, and tied-end knot.
  -->
  <rect width="32" height="32" fill="#24170f"/>

  <!-- Whole haggis casing, cropped larger than the in-game pose -->
  <ellipse cx="15.6" cy="17.2" rx="14" ry="9.8" fill="#1a0e08"/>
  <ellipse cx="15.2" cy="16.7" rx="12.1" ry="7.9" fill="#7a3f24"/>
  <ellipse cx="11.8" cy="14.6" rx="7.4" ry="3.7" fill="#9c5630" opacity="0.72"/>
  <ellipse cx="19.2" cy="20.9" rx="7.6" ry="2.4" fill="#3a1e12" opacity="0.48"/>
  <ellipse cx="10.7" cy="10.8" rx="5.4" ry="1.2" fill="#b46a38" opacity="0.68"/>
  <ellipse cx="15.8" cy="24.5" rx="10.6" ry="1.2" fill="#3a1e12" opacity="0.52"/>

  <!-- Casing tension and tied-end knot -->
  <ellipse cx="4.8" cy="17.4" rx="1.1" ry="4.9" fill="#2a1408" opacity="0.48"/>
  <ellipse cx="26.2" cy="17.9" rx="1.3" ry="5.1" fill="#2a1408" opacity="0.55"/>
  <ellipse cx="27.5" cy="19.8" rx="1.55" ry="2.25" fill="#1a0e08"/>
  <ellipse cx="27.0" cy="19.8" rx="0.9" ry="1.45" fill="#3a1e12"/>
  <rect x="25.15" y="16.1" width="0.7" height="6.2" fill="#5a3a20" opacity="0.92"/>
  <rect x="26.45" y="16.8" width="0.58" height="4.8" fill="#c4a878" opacity="0.95"/>
  <circle cx="25.9" cy="17.8" r="0.66" fill="#c4a878" opacity="0.96"/>
  <circle cx="28.0" cy="18.9" r="0.72" fill="#5a3a20" opacity="0.86"/>
  <circle cx="28.0" cy="18.9" r="0.42" fill="#c4a878" opacity="0.78"/>
  <path d="M 26.6,17.8 Q 27.8,17.2 28.8,19.2" fill="none" stroke="#c4a878" stroke-width="0.5" stroke-linecap="round" opacity="0.82"/>

  <!-- Pale oat cutaway and a few casing flecks -->
  <path d="M 3.9,13.7 Q 5.8,12.2 9.7,13.4 Q 11.0,15.1 10.0,16.8 Q 7.8,18.0 4.9,16.9 Q 3.1,15.5 3.9,13.7" fill="#2a1408" opacity="0.62"/>
  <path d="M 4.4,14.1 Q 7.0,12.9 9.6,14.1 Q 10.0,15.8 8.9,16.6 Q 6.9,17.3 4.8,16.2 Q 3.8,15.0 4.4,14.1" fill="#f4d8a0"/>
  <circle cx="5.8" cy="14.1" r="0.52" fill="#3a2a1a" opacity="0.62"/>
  <circle cx="8.0" cy="15.4" r="0.62" fill="#d8b46a" opacity="0.95"/>
  <circle cx="9.0" cy="14.5" r="0.48" fill="#d8b46a" opacity="0.82"/>
  <circle cx="10.5" cy="21.4" r="0.45" fill="#d8b46a" opacity="0.72"/>
  <circle cx="21.6" cy="15" r="0.45" fill="#d8b46a" opacity="0.76"/>
  <circle cx="20.4" cy="22.3" r="0.38" fill="#d8b46a" opacity="0.68"/>

  <!-- Cream mascot eyes: large enough to read at 32px -->
  <circle cx="12.2" cy="16.0" r="3.0" fill="#1a0e08"/>
  <circle cx="20.2" cy="16.0" r="3.0" fill="#1a0e08"/>
  <circle cx="12.2" cy="15.8" r="2.36" fill="#f0e6c8"/>
  <circle cx="20.2" cy="15.8" r="2.36" fill="#f0e6c8"/>
  <circle cx="12.8" cy="15.55" r="0.92" fill="#0a0604"/>
  <circle cx="19.6" cy="15.55" r="0.92" fill="#0a0604"/>
  <circle cx="12.48" cy="14.82" r="0.34" fill="#fff0c8"/>
  <circle cx="19.28" cy="14.82" r="0.34" fill="#fff0c8"/>
  <path d="M 9.85,13.9 Q 11.7,13.55 14.0,13.85" fill="none" stroke="#1a0e08" stroke-width="0.32" stroke-linecap="round" opacity="0.28"/>
  <path d="M 17.85,13.9 Q 20.0,13.55 22.25,13.85" fill="none" stroke="#1a0e08" stroke-width="0.32" stroke-linecap="round" opacity="0.28"/>
</svg>
