<?xml version="1.0" encoding="UTF-8"?>
<!--
  ha.ggis hub — Open Graph social card.
  Size: 1200×630 (1.91:1, the platform-recommended OG aspect).
  Tokens: DESIGN.md (ink-deep, peat-brown, tatties-cream, oat-tan,
          neeps-orange, dawn-pink, heather-purple, whisky-amber).
  Protagonist: the committed-folk-silhouette bothy haggis ported from
  `src/render/bothy-haggis.ts`. If you change the in-room haggis,
  port the changes here too — there is no auto-sync.

  Regenerate the PNG via `pnpm rasterize:og` after editing.
-->
<svg xmlns="http://www.w3.org/2000/svg" viewBox="0 0 1200 630" width="1200" height="630" role="img" aria-label="ha.ggis hub — ha + ggis = haggis. A wee front door for highland games.">
  <title>ha.ggis hub</title>
  <desc>A peat-brown wild haggis with a tartan band and two dot eyes beside the title 'ha + ggis = haggis'. Warm peat-brown bothy at dawn.</desc>

  <defs>
    <!-- Background: peat-brown with a soft dawn glow in upper-right -->
    <radialGradient id="dawn" cx="80%" cy="0%" r="80%">
      <stop offset="0%"   stop-color="#f4c8b8" stop-opacity="0.32"/>
      <stop offset="30%"  stop-color="#7a4a9c" stop-opacity="0.18"/>
      <stop offset="70%"  stop-color="#3a2418" stop-opacity="0"/>
    </radialGradient>

    <!-- Warm vignette to focus reading -->
    <radialGradient id="vignette" cx="50%" cy="50%" r="72%">
      <stop offset="60%" stop-color="#1a0e08" stop-opacity="0"/>
      <stop offset="100%" stop-color="#0a0604" stop-opacity="0.65"/>
    </radialGradient>
  </defs>

  <!-- Backdrop -->
  <rect x="0" y="0" width="1200" height="630" fill="#1a0e08"/>
  <rect x="0" y="0" width="1200" height="630" fill="url(#dawn)"/>

  <!-- Title block (left half) -->
  <g font-family="'Old Standard TT', 'IM Fell English', Cormorant Garamond, Georgia, 'Iowan Old Style', 'Apple Garamond', Baskerville, 'Times New Roman', serif" fill="#f0e6c8">
    <!-- The joke, big -->
    <text x="80" y="260" font-size="92" font-weight="400" letter-spacing="-1.5">ha<tspan fill="#e4a020">.</tspan>ggis</text>

    <!-- Equation underline + punchline -->
    <text x="80" y="320" font-size="36" font-style="italic" fill="#c4a878">ha + ggis = haggis</text>

    <!-- Tagline -->
    <text x="80" y="395" font-size="28" font-weight="400" fill="#f0e6c8">A wee front door for</text>
    <text x="80" y="430" font-size="28" font-weight="400" fill="#f0e6c8">a family of Highland games.</text>

    <!-- URL footer + Scots invite -->
    <text x="80" y="555" font-size="22" font-style="italic" fill="#8a6f4a">awa' in →</text>
    <text x="80" y="590" font-size="20" font-weight="600" fill="#c8842a">ha.ggis.xyz</text>
  </g>

  <!-- Haggis — committed folk silhouette, ported from bothy-haggis.ts.
       One body, one tartan band, two dot eyes, asymmetric drift legs,
       heather patch. No fabric flaps, no thistle, no stitching, no
       eye-construction. -->
  <g transform="translate(900 320) scale(6)">

    <!-- Heather-purple ground patch -->
    <ellipse cx="0" cy="20" rx="32" ry="3.5" fill="#28182c" opacity="0.6"/>
    <circle cx="-10" cy="20.5" r="1.0" fill="#7a4a9c" opacity="0.7"/>
    <circle cx="8"   cy="21"   r="0.9" fill="#7a4a9c" opacity="0.55"/>

    <!-- Asymmetric drift legs — left pair LONG, right pair SHORT -->
    <g fill="#1a0e08">
      <rect x="-11.5" y="15" width="3.0" height="7"/>
      <rect x="-5.5"  y="15" width="3.0" height="7"/>
      <rect x="2.5"   y="15" width="3.0" height="4"/>
      <rect x="8.5"   y="15" width="3.0" height="4"/>
    </g>

    <!-- Body silhouette — outer ink ring + inner peat-brown fill.
         One shape, one body, no layered highlights. -->
    <path d="M -5,-11 Q -6,-13.5 -4,-14 Q 0,-14.5 4,-14 Q 6,-13.5 5,-11
             Q 11,-8 15,-2 Q 21,7 18,14 Q 11,19 0,19
             Q -11,19 -18,14 Q -21,7 -15,-2 Q -11,-8 -5,-11 Z"
          fill="#1a0e08"/>
    <path d="M -4,-10 Q -5,-12.5 -3,-13 Q 0,-13.5 3,-13 Q 5,-12.5 4,-10
             Q 9.5,-7 13.5,-2 Q 19,7 16.5,13 Q 10,17.5 0,17.5
             Q -10,17.5 -16.5,13 Q -19,7 -13.5,-2 Q -9.5,-7 -4,-10 Z"
          fill="#5a3220"/>

    <!-- Tartan band — ONE wrap. Cream base + red+green stripes.
         The one Scottish cue. -->
    <ellipse cx="0" cy="-10.5" rx="10" ry="1.2" fill="#3a1410"/>
    <ellipse cx="0" cy="-11"   rx="10" ry="1.0" fill="#f4d8a0"/>
    <ellipse cx="-3.5" cy="-11" rx="1.6" ry="0.95" fill="#9c2018"/>
    <ellipse cx="0"    cy="-11" rx="1.6" ry="0.95" fill="#1f4628"/>
    <ellipse cx="3.5"  cy="-11" rx="1.6" ry="0.95" fill="#9c2018"/>

    <!-- Two small ribbon-end twists above the band — bow tails -->
    <path d="M -1.8,-12 Q -3.2,-14.5 -1,-14.5 L -1.3,-12 Z" fill="#9c2018"/>
    <path d="M 1.3,-12 Q 3.2,-14.5 1,-14.5 L 1.8,-12 Z" fill="#1f4628"/>

    <!-- Eyes — TWO BLACK DOTS -->
    <circle cx="-5.5" cy="-1" r="1.6" fill="#0a0604"/>
    <circle cx="5.5"  cy="-1" r="1.6" fill="#0a0604"/>
  </g>

  <!-- Vignette over everything -->
  <rect x="0" y="0" width="1200" height="630" fill="url(#vignette)" pointer-events="none"/>

  <!-- Hairline frame -->
  <rect x="6" y="6" width="1188" height="618" fill="none" stroke="#5a3a20" stroke-width="1"/>
</svg>
