<?xml version="1.0" encoding="UTF-8"?>
<!--
  ha.ggis hub — Open Graph social card.
  Size: 1200×630 (1.91:1, the platform-recommended OG aspect).
  Tokens: DESIGN.md (ink-deep, peat-brown, tatties-cream, oat-tan,
          neeps-orange, dawn-pink, heather-purple, whisky-amber).
  Protagonist: the tied-pudding bothy haggis ported from
  `src/render/bothy-haggis.ts`. If you change the in-room haggis,
  port the changes here too — there is no auto-sync.

  Regenerate the PNG via `pnpm rasterize:og` after editing.
-->
<svg xmlns="http://www.w3.org/2000/svg" viewBox="0 0 1200 630" width="1200" height="630" role="img" aria-label="ha.ggis hub — ha + ggis = haggis. A wee front door for highland games.">
  <title>ha.ggis hub</title>
  <desc>A tied-pudding wild haggis with peering eyes beside the title 'ha + ggis = haggis'. Warm peat-brown bothy at dawn.</desc>

  <defs>
    <!-- Background: peat-brown with a soft dawn glow in upper-right -->
    <radialGradient id="dawn" cx="80%" cy="0%" r="80%">
      <stop offset="0%"   stop-color="#f4c8b8" stop-opacity="0.32"/>
      <stop offset="30%"  stop-color="#7a4a9c" stop-opacity="0.18"/>
      <stop offset="70%"  stop-color="#3a2418" stop-opacity="0"/>
    </radialGradient>

    <!-- Warm vignette to focus reading -->
    <radialGradient id="vignette" cx="50%" cy="50%" r="72%">
      <stop offset="60%" stop-color="#1a0e08" stop-opacity="0"/>
      <stop offset="100%" stop-color="#0a0604" stop-opacity="0.65"/>
    </radialGradient>
  </defs>

  <!-- Backdrop -->
  <rect x="0" y="0" width="1200" height="630" fill="#1a0e08"/>
  <rect x="0" y="0" width="1200" height="630" fill="url(#dawn)"/>

  <!-- Title block (left half) -->
  <g font-family="'Old Standard TT', 'IM Fell English', Cormorant Garamond, Georgia, 'Iowan Old Style', 'Apple Garamond', Baskerville, 'Times New Roman', serif" fill="#f0e6c8">
    <!-- The joke, big -->
    <text x="80" y="260" font-size="92" font-weight="400" letter-spacing="-1.5">ha<tspan fill="#e4a020">.</tspan>ggis</text>

    <!-- Equation underline + punchline -->
    <text x="80" y="320" font-size="36" font-style="italic" fill="#c4a878">ha + ggis = haggis</text>

    <!-- Tagline -->
    <text x="80" y="395" font-size="28" font-weight="400" fill="#f0e6c8">A wee front door for</text>
    <text x="80" y="430" font-size="28" font-weight="400" fill="#f0e6c8">a family of Highland games.</text>

    <!-- URL footer + Scots invite -->
    <text x="80" y="555" font-size="22" font-style="italic" fill="#8a6f4a">awa' in →</text>
    <text x="80" y="590" font-size="20" font-weight="600" fill="#c8842a">ha.ggis.xyz</text>
  </g>

  <!-- Haggis — tied-pudding-with-eyes, ported from bothy-haggis.ts.
       Native body design coords scaled ×6 for the OG canvas. The
       shape language IS the food (stuffed sack tied with twine);
       the asymmetric leg drift preserves the tourist-canon gag. -->
  <g transform="translate(900 320) scale(6)">

    <!-- Heather-purple ground patch -->
    <ellipse cx="0" cy="20" rx="36" ry="4" fill="#28182c" opacity="0.6"/>
    <circle cx="-12" cy="20.5" r="1.2" fill="#7a4a9c" opacity="0.7"/>
    <circle cx="5"   cy="21"   r="1.0" fill="#7a4a9c" opacity="0.6"/>

    <!-- Asymmetric drift legs — left pair LONG, right pair SHORT.
         The canonical tourist haggis-circles-hills-one-way joke. -->
    <g fill="#1a0e08">
      <rect x="-11.5" y="15" width="3.0" height="7"/>
      <rect x="-5.5"  y="15" width="3.0" height="7"/>
      <rect x="2.5"   y="15" width="3.0" height="4"/>
      <rect x="8.5"   y="15" width="3.0" height="4"/>
    </g>
    <g fill="#0a0604">
      <rect x="-12" y="20.6" width="4.0" height="1.4"/>
      <rect x="-6"  y="20.6" width="4.0" height="1.4"/>
      <rect x="2"   y="17.6" width="4.0" height="1.4"/>
      <rect x="8"   y="17.6" width="4.0" height="1.4"/>
    </g>

    <!-- Sack body silhouette ring + main fill — pear-shaped, narrow
         cinched neck at top, heavy hip at the lower middle. -->
    <path d="M -5,-12 Q -6,-14.5 -4,-15 Q 0,-15.5 4,-15 Q 6,-14.5 5,-12
             Q 11,-9 15,-3 Q 21,6 18,14 Q 11,19.5 0,19.5
             Q -11,19.5 -18,14 Q -21,6 -15,-3 Q -11,-9 -5,-12 Z"
          fill="#2a1810"/>
    <path d="M -4,-11 Q -5,-13.5 -3,-14 Q 0,-14.5 3,-14 Q 5,-13.5 4,-11
             Q 9.5,-8 13.5,-3 Q 19,6 16.5,13 Q 10,18 0,18
             Q -10,18 -16.5,13 Q -19,6 -13.5,-3 Q -9.5,-8 -4,-11 Z"
          fill="#6a4528"/>

    <!-- Dawn-lit upper crown — translucent warm crescents on the
         very top of the sack, above the face zone. -->
    <ellipse cx="-2" cy="-8" rx="7" ry="2.25" fill="#a06030" opacity="0.5"/>
    <ellipse cx="2"  cy="-6" rx="5" ry="1.5"  fill="#a06030" opacity="0.35"/>

    <!-- Knobbly stuffing texture — short stitch strokes on the
         lower-body curves where stuffing pushes against the cloth. -->
    <g stroke="#1a0e08" stroke-width="0.75" stroke-linecap="round" opacity="0.85">
      <line x1="-14" y1="5"  x2="-12" y2="7"/>
      <line x1="-10" y1="9"  x2="-8"  y2="11"/>
      <line x1="-5"  y1="11" x2="-3"  y2="13"/>
      <line x1="3"   y1="11" x2="5"   y2="13"/>
      <line x1="8"   y1="9"  x2="10"  y2="11"/>
      <line x1="12"  y1="5"  x2="14"  y2="7"/>
      <line x1="-14" y1="0"  x2="-13" y2="2"/>
      <line x1="13"  y1="0"  x2="14"  y2="2"/>
      <line x1="-10" y1="14" x2="-8"  y2="16"/>
      <line x1="8"   y1="14" x2="10"  y2="16"/>
      <line x1="-3"  y1="15" x2="-1"  y2="17"/>
      <line x1="1"   y1="15" x2="3"   y2="17"/>
    </g>

    <!-- Belly shadow — soft darker patch on the lower half -->
    <ellipse cx="0" cy="10" rx="10" ry="2.5" fill="#2a1810" opacity="0.32"/>

    <!-- Tied neck: fabric ears (gathered cloth) then twine wraps. -->
    <!-- Left fabric ear flopping outward (visible side + underside shadow) -->
    <path d="M -4.5,-15.5 Q -10,-19 -12,-17 Q -9,-15.5 -3,-15 Z" fill="#6a4528"/>
    <path d="M -5,-15 Q -9,-16.5 -11,-15.5 Q -9,-14.7 -4.5,-14.5 Z" fill="#2a1810" opacity="0.55"/>
    <!-- Right fabric ear -->
    <path d="M 4.5,-15.5 Q 10,-19 12,-17 Q 9,-15.5 3,-15 Z" fill="#6a4528"/>
    <path d="M 5,-15 Q 9,-16.5 11,-15.5 Q 9,-14.7 4.5,-14.5 Z" fill="#2a1810" opacity="0.55"/>

    <!-- Three twine wraps across the cinch -->
    <ellipse cx="0" cy="-13"    rx="11" ry="1.1" fill="#6a4a30"/>
    <ellipse cx="0" cy="-13.5"  rx="11" ry="0.9" fill="#c4a878"/>
    <ellipse cx="-2.75" cy="-13.75" rx="5.5" ry="0.4" fill="#f4d8a0" opacity="0.7"/>
    <ellipse cx="0" cy="-11.7"  rx="12" ry="1.1" fill="#6a4a30"/>
    <ellipse cx="0" cy="-12.2"  rx="12" ry="0.9" fill="#c4a878"/>
    <ellipse cx="-3" cy="-12.45" rx="6" ry="0.4" fill="#f4d8a0" opacity="0.7"/>
    <ellipse cx="0" cy="-10.3"  rx="13" ry="1.1" fill="#6a4a30"/>
    <ellipse cx="0" cy="-10.8"  rx="13" ry="0.9" fill="#c4a878"/>
    <ellipse cx="-3.25" cy="-11.05" rx="6.5" ry="0.4" fill="#f4d8a0" opacity="0.7"/>

    <!-- Twine tails curling out either side of the wraps -->
    <g stroke="#6a4a30" stroke-width="0.7" stroke-linecap="round" fill="none">
      <path d="M -7,-12.5 Q -9,-12 -10,-11"/>
      <path d="M 7,-12.5 Q 9,-12 10,-11"/>
    </g>

    <!-- Face: muzzle bulge + dark nose + nostrils + smile -->
    <ellipse cx="0" cy="2.5" rx="3.2" ry="2.1" fill="#5a3220" opacity="0.9"/>
    <ellipse cx="0" cy="1.6" rx="1.5" ry="0.9" fill="#1a0e08"/>
    <circle  cx="-0.4" cy="1.2" r="0.5" fill="#5a3220" opacity="0.8"/>
    <circle  cx="-0.9" cy="1.9" r="0.35" fill="#0a0604" opacity="0.85"/>
    <circle  cx="0.9"  cy="1.9" r="0.35" fill="#0a0604" opacity="0.85"/>

    <!-- Smile -->
    <path d="M -2.4,3.6 Q 0,4.8 2.4,3.6"
          stroke="#0a0604" stroke-width="0.8" stroke-linecap="round"
          fill="none" opacity="0.95"/>

    <!-- Eyes — wide apart, slight asymmetry (right eye larger,
         catchlights at offset angles so the face feels hand-drawn). -->
    <!-- Left eye -->
    <circle cx="-5.5" cy="-1.2" r="3.0" fill="#1a0e08"/>
    <ellipse cx="-5.5" cy="-1.2" rx="2.4" ry="2.4" fill="#f0e6c8"/>
    <circle cx="-5.5" cy="-1.2" r="1.2" fill="#0a0604"/>
    <ellipse cx="-5.86" cy="-1.86" rx="0.66" ry="0.42" fill="#fff0c8"/>
    <!-- Right eye -->
    <circle cx="5.7" cy="-1" r="3.2" fill="#1a0e08"/>
    <ellipse cx="5.7" cy="-1" rx="2.6" ry="2.6" fill="#f0e6c8"/>
    <circle cx="5.7" cy="-1" r="1.3" fill="#0a0604"/>
    <ellipse cx="5.83" cy="-1.72" rx="0.71" ry="0.45" fill="#fff0c8"/>
  </g>

  <!-- Vignette over everything -->
  <rect x="0" y="0" width="1200" height="630" fill="url(#vignette)" pointer-events="none"/>

  <!-- Hairline frame -->
  <rect x="6" y="6" width="1188" height="618" fill="none" stroke="#5a3a20" stroke-width="1"/>
</svg>
