<svg xmlns="http://www.w3.org/2000/svg" viewBox="0 0 1280 360" width="1280" height="360" font-family="-apple-system,BlinkMacSystemFont,Segoe UI,Helvetica,Arial,sans-serif">
  <defs>
    <linearGradient id="bg" x1="0" y1="0" x2="0" y2="1"><stop offset="0" stop-color="#2c2419"/><stop offset="1" stop-color="#3d3226"/></linearGradient>
    <linearGradient id="hill" x1="0" y1="0" x2="0" y2="1"><stop offset="0" stop-color="#7b6d8d"/><stop offset="1" stop-color="#5b4f63"/></linearGradient>
  </defs>
  <rect width="1280" height="360" fill="url(#bg)"/>
  <g opacity="0.10" stroke="#f5f0e8" stroke-width="26"><line x1="0" y1="60" x2="1280" y2="60"/><line x1="0" y1="300" x2="1280" y2="300"/></g>
  <g opacity="0.08" stroke="#c9a23f" stroke-width="26"><line x1="180" y1="0" x2="180" y2="360"/><line x1="1080" y1="0" x2="1080" y2="360"/></g>
  <g opacity="0.06" stroke="#f5f0e8" stroke-width="8"><line x1="120" y1="0" x2="120" y2="360"/><line x1="240" y1="0" x2="240" y2="360"/><line x1="1020" y1="0" x2="1020" y2="360"/><line x1="1140" y1="0" x2="1140" y2="360"/></g>
  <circle cx="1040" cy="120" r="46" fill="#c9a23f" opacity="0.85"/>
  <path d="M0 300 C 240 252, 460 300, 700 282 S 1080 250, 1280 286 L1280 360 L0 360 Z" fill="url(#hill)"/>
  <path d="M0 326 C 300 306, 560 330, 820 320 S 1140 306, 1280 322 L1280 360 L0 360 Z" fill="#241d14"/>
  <g stroke="#c9a23f" stroke-width="9" stroke-linecap="round"><line x1="150" y1="300" x2="250" y2="150"/></g>
  <rect x="244" y="142" width="16" height="16" rx="3" fill="#f5f0e8"/>
  <text x="80" y="180" font-size="86" font-weight="800" fill="#f5f0e8" letter-spacing="1">ha&#183;ggis hub</text>
  <text x="84" y="222" font-size="23" font-weight="500" fill="#c9a23f" letter-spacing="4">SAY IT WITHOUT THE DOT &#183; HIGHLAND-GAMES ARCADE</text>
</svg>
